<svg width="50" height="50" viewBox="0 0 45 45" fill="none" xmlns="http://www.w3.org/2000/svg">
<g clip-path="url(#clip0_216_111)">
<path d="M31.5938 31.1988L34.2938 28.6272L25.1438 19.9121L18.975 25.7876C18.2438 26.4841 17.0625 26.4841 16.3313 25.7876L5.08127 15.0546C4.35002 14.3581 4.35002 13.233 5.08127 12.5365C5.81252 11.84 6.99377 11.84 7.72502 12.5365L17.6438 22.0016L23.8125 16.1261C24.5438 15.4296 25.725 15.4296 26.4563 16.1261L36.9375 26.0912L39.6375 23.5196C40.2188 22.966 41.2313 23.3589 41.2313 24.1446V31.806C41.2313 32.306 40.8188 32.6989 40.2938 32.6989H32.25C31.425 32.7168 31.0125 31.7524 31.5938 31.1988Z" fill="#FF0000"/>
</g>
<defs>
<clipPath id="clip0_216_111">
<rect width="45" height="45" fill="white"/>
</clipPath>
</defs>
</svg>
