<svg width="41" height="41" viewBox="0 0 41 41" fill="none" xmlns="http://www.w3.org/2000/svg">
<path d="M29.4816 25.944H27.6184L26.9581 25.3072C29.7882 22.0054 31.2504 17.5009 30.4485 12.7133C29.3401 6.15692 23.8686 0.921254 17.265 0.119396C7.28895 -1.10698 -1.10698 7.28895 0.119396 17.265C0.921254 23.8686 6.15692 29.3401 12.7133 30.4485C17.5009 31.2504 22.0054 29.7882 25.3072 26.9581L25.944 27.6184V29.4816L35.9672 39.5048C36.9341 40.4717 38.5143 40.4717 39.4812 39.5048C40.4482 38.5378 40.4482 36.9577 39.4812 35.9908L29.4816 25.944ZM15.3311 25.944C9.45869 25.944 4.71829 21.2036 4.71829 15.3311C4.71829 9.45869 9.45869 4.71829 15.3311 4.71829C21.2036 4.71829 25.944 9.45869 25.944 15.3311C25.944 21.2036 21.2036 25.944 15.3311 25.944Z" fill="white"/>
</svg>
