<svg width="42" height="25" viewBox="0 0 42 25" fill="none" xmlns="http://www.w3.org/2000/svg">
<path d="M30.8134 1.81475L33.8878 4.88915L23.469 15.308L16.4449 8.28381C15.6122 7.45116 14.2671 7.45116 13.4345 8.28381L0.624488 21.1152C-0.208163 21.9478 -0.208163 23.2929 0.624488 24.1255C1.45714 24.9582 2.80219 24.9582 3.63484 24.1255L14.929 12.81L21.9532 19.8342C22.7858 20.6668 24.1309 20.6668 24.9635 19.8342L36.8982 7.92086L39.9726 10.9953C40.6344 11.6571 41.7873 11.1874 41.7873 10.248V1.0675C41.8087 0.4697 41.339 0 40.7412 0H31.582C30.6213 0 30.1516 1.1529 30.8134 1.81475Z" fill="#008000"/>
</svg>
